<svg width="200" height="200" viewBox="0 0 200 200" xmlns="http://www.w3.org/2000/svg">
  <rect width="200" height="200" fill="#f8fafc"/>
  
  <!-- Enhanced pixel art avatar with better visibility -->
  <g transform="translate(50, 50)">
    <!-- Head - larger and more defined -->
    <circle cx="50" cy="50" r="45" fill="#1e293b"/>
    
    <!-- Hair - more prominent -->
    <rect x="25" y="15" width="50" height="12" fill="#1e3a8a"/>
    <rect x="20" y="20" width="60" height="8" fill="#1e3a8a"/>
    
    <!-- Face features - larger and more visible -->
    <circle cx="35" cy="45" r="5" fill="#22d3ee"/>
    <circle cx="65" cy="45" r="5" fill="#22d3ee"/>
    
    <!-- Glasses - thicker and more visible -->
    <rect x="28" y="40" width="18" height="10" fill="none" stroke="#22d3ee" stroke-width="3" rx="5"/>
    <rect x="54" y="40" width="18" height="10" fill="none" stroke="#22d3ee" stroke-width="3" rx="5"/>
    <line x1="43" y1="45" x2="57" y2="45" stroke="#22d3ee" stroke-width="3"/>
    
    <!-- Mouth - more defined -->
    <path d="M 38 58 Q 50 63 62 58" fill="none" stroke="#64748b" stroke-width="3"/>
    
    <!-- Pixel art grid pattern for authentic look -->
    <g opacity="0.6">
      <!-- Head grid -->
      <rect x="30" y="30" width="8" height="8" fill="#22d3ee"/>
      <rect x="62" y="30" width="8" height="8" fill="#22d3ee"/>
      <rect x="30" y="60" width="8" height="8" fill="#a78bfa"/>
      <rect x="62" y="60" width="8" height="8" fill="#10b981"/>
      
      <!-- Hair grid -->
      <rect x="25" y="20" width="8" height="8" fill="#1e3a8a"/>
      <rect x="67" y="20" width="8" height="8" fill="#1e3a8a"/>
      
      <!-- Background pixels -->
      <rect x="15" y="15" width="6" height="6" fill="#22d3ee"/>
      <rect x="79" y="25" width="6" height="6" fill="#a78bfa"/>
      <rect x="25" y="75" width="6" height="6" fill="#10b981"/>
      <rect x="69" y="65" width="6" height="6" fill="#22d3ee"/>
    </g>
  </g>
  
  <!-- Enhanced grain/particle background -->
  <g opacity="0.15">
    <rect x="25" y="25" width="4" height="4" fill="#22d3ee"/>
    <rect x="171" y="35" width="4" height="4" fill="#a78bfa"/>
    <rect x="35" y="171" width="4" height="4" fill="#10b981"/>
    <rect x="161" y="161" width="4" height="4" fill="#22d3ee"/>
    <rect x="45" y="45" width="4" height="4" fill="#a78bfa"/>
    <rect x="155" y="55" width="4" height="4" fill="#10b981"/>
    <rect x="55" y="155" width="4" height="4" fill="#22d3ee"/>
    <rect x="145" y="145" width="4" height="4" fill="#a78bfa"/>
    <rect x="65" y="65" width="4" height="4" fill="#10b981"/>
    <circle cx="130" cy="80" r="1" fill="#22d3ee"/>
    <circle cx="80" cy="130" r="1" fill="#a78bfa"/>
    <circle cx="120" cy="120" r="1" fill="#10b981"/>
    <circle cx="90" cy="90" r="1" fill="#22d3ee"/>
    <circle cx="110" cy="100" r="1" fill="#a78bfa"/>
    <circle cx="100" cy="110" r="1" fill="#10b981"/>
    <circle cx="20" cy="100" r="1" fill="#22d3ee"/>
    <circle cx="180" cy="90" r="1" fill="#a78bfa"/>
    <circle cx="10" cy="180" r="1" fill="#10b981"/>
    <circle cx="190" cy="170" r="1" fill="#22d3ee"/>
  </g>
</svg>